<svg xmlns="http://www.w3.org/2000/svg" width="512" height="512"><path fill="#1d7ff2" d="M217.531 65.297c6.5 3.056 12.641 6.803 18.836 10.422l3.378 1.948a412 412 0 0 1 6.65 3.935l3.113 1.812 2.77 1.655c3.657 1.25 5.239.496 8.722-1.069q2.854-1.454 5.633-3.047l3.195-1.812 3.297-1.891C299.742 62.04 299.742 62.04 311 64c10.784 4.122 15.453 15.037 20.625 24.563q1.506 2.751 3.016 5.502 1.365 2.49 2.72 4.984a137 137 0 0 0 3.351 5.712C342 107 342 107 342 109l1.655-.027c5.71-.089 11.42-.149 17.132-.193a925 925 0 0 0 6.383-.082 911 911 0 0 1 9.205-.089l2.858-.062c7.076-.003 12.378 1.528 17.79 6.2l1.352 1.69 1.398 1.684c3.655 5.598 3.492 10.727 3.422 17.211l-.008 3.005c-.011 3.159-.037 6.317-.062 9.476q-.016 3.218-.027 6.435-.034 7.875-.098 15.752l2.669.823c3.115 1.1 5.764 2.38 8.632 4.005l2.963 1.676 3.048 1.746c.995.56 1.99 1.121 3.014 1.7 20.83 11.843 20.83 11.843 24.674 21.05 2.45 13.739-5.118 24.07-11.719 35.367l-1.948 3.378a412 412 0 0 1-3.935 6.65l-1.812 3.113-1.655 2.77c-1.25 3.657-.496 5.239 1.069 8.722q1.454 2.854 3.047 5.633l1.812 3.195 1.891 3.297C449.96 299.742 449.96 299.742 448 311c-3.974 10.396-14.246 15.032-23.437 20.063l-6.622 3.66-3.124 1.715a315 315 0 0 0-6.977 3.996C405 342 405 342 403 342l.027 1.655c.089 5.71.149 11.42.193 17.132q.03 3.192.082 6.383c.049 3.069.071 6.136.089 9.205l.062 2.858c.003 7.076-1.528 12.378-6.2 17.79l-1.69 1.352-1.684 1.398c-5.598 3.655-10.727 3.492-17.211 3.422l-3.005-.008c-3.159-.011-6.317-.037-9.476-.062q-3.218-.016-6.435-.027-7.875-.034-15.752-.098l-.81 2.132c-2.249 5.42-5.167 10.515-7.94 15.68l-1.844 3.487C320.958 443.777 320.958 443.777 311 448c-13.739 2.45-24.07-5.118-35.367-11.719l-3.378-1.948a412 412 0 0 1-6.65-3.935l-3.113-1.812-2.77-1.655c-3.657-1.25-5.239-.496-8.722 1.069q-2.854 1.454-5.633 3.047l-3.195 1.812-3.297 1.891C212.258 449.96 212.258 449.96 201 448c-10.784-4.122-15.453-15.037-20.625-24.562q-1.506-2.753-3.016-5.503-1.365-2.49-2.72-4.984a137 137 0 0 0-3.351-5.712C170 405 170 405 170 403l-1.655.027c-5.71.089-11.42.149-17.132.193q-3.192.03-6.383.082a911 911 0 0 1-9.205.089l-2.858.062c-7.076.003-12.378-1.528-17.79-6.2l-1.352-1.69-1.398-1.684c-3.655-5.598-3.492-10.727-3.422-17.211l.008-3.005c.011-3.159.037-6.317.062-9.476q.016-3.218.027-6.435.034-7.875.098-15.752l-2.698-.837c-2.958-1.042-5.426-2.208-8.13-3.772l-2.676-1.54-2.746-1.601-2.7-1.555c-2.69-1.554-5.37-3.123-8.05-4.695l-2.777-1.601-2.676-1.563-2.396-1.39A27.6 27.6 0 0 1 64 311c-2.45-13.739 5.118-24.07 11.719-35.367l1.948-3.378a412 412 0 0 1 3.935-6.65l1.812-3.113 1.655-2.77c1.25-3.657.496-5.239-1.069-8.722a130 130 0 0 0-3.047-5.633l-1.812-3.195-1.891-3.297C62.04 212.258 62.04 212.258 64 201c4.122-10.784 15.037-15.453 24.563-20.625q2.751-1.506 5.502-3.016 2.49-1.365 4.984-2.72a137 137 0 0 0 5.712-3.351C107 170 107 170 109 170l-.027-1.655c-.089-5.71-.149-11.42-.193-17.132a925 925 0 0 0-.082-6.383 904 904 0 0 1-.089-9.205l-.062-2.858c-.003-7.076 1.528-12.378 6.2-17.79l1.69-1.352 1.684-1.398c5.598-3.655 10.727-3.492 17.211-3.422l3.005.008c3.159.011 6.317.037 9.476.062q3.218.016 6.435.027 7.875.034 15.752.098l.81-2.132c2.249-5.42 5.167-10.515 7.94-15.68l1.844-3.487c8.104-15.11 17.61-29.502 36.937-22.404"/><path fill="#fafcfe" d="M343.809 191.566c3.477.688 5.075 2.723 7.191 5.434l1 1c.716 3.638.901 5.478 0 9-1.695 2.34-1.695 2.34-4.153 4.918l-1.44 1.52A557 557 0 0 1 341 219l-2.271 2.318a3168 3168 0 0 1-18.436 18.589l-4.817 4.829a22242 22242 0 0 1-15.12 15.148 11728 11728 0 0 0-17.372 17.422 8495 8495 0 0 1-13.502 13.535 3619 3619 0 0 0-8.035 8.06 2126 2126 0 0 1-7.542 7.552c-1.359 1.357-2.71 2.723-4.061 4.088-4.83 4.797-8.886 8.599-15.719 10.084-8.878-1.776-16.713-13.067-23.027-19.395l-3.39-3.385q-3.525-3.524-7.046-7.053-4.518-4.525-9.046-9.042-3.488-3.483-6.971-6.972l-3.339-3.336a2503 2503 0 0 1-4.638-4.644l-2.665-2.668c-3.247-3.453-3.524-6.176-3.48-10.798.739-3.614 2.625-5.189 5.543-7.297 2.927-1.567 4.689-1.725 7.934-1.035 6.357 3.529 11.14 8.887 16.21 14.016l2.935 2.942q3.837 3.852 7.664 7.713c2.61 2.632 5.227 5.257 7.843 7.884Q226.334 285.27 234 293c5.703-4.74 10.95-9.82 16.177-15.079l4.107-4.114 4.372-4.388a8875 8875 0 0 1 9.141-9.165q9.7-9.718 19.39-19.442a37004 37004 0 0 1 20.97-21.023q4.545-4.55 9.082-9.11 3.484-3.496 6.973-6.988l2.53-2.546 2.331-2.332 2.018-2.024c4.301-4.03 6.829-5.388 12.718-5.223"/></svg>